<?xml version="1.0" encoding="utf-8"?>
<!-- Generator: Adobe Illustrator 22.1.0, SVG Export Plug-In . SVG Version: 6.00 Build 0)  -->
<svg version="1.1" id="Layer_1" xmlns="http://www.w3.org/2000/svg" xmlns:xlink="http://www.w3.org/1999/xlink" x="0px" y="0px"
	 viewBox="0 0 512 512" style="enable-background:new 0 0 512 512;" xml:space="preserve">
<g>
	<path d="M461.8,229.9c0-14.4,2.3-22.9,2.3-38.4c0-24.1-8.9-31.8-28.5-31.8h-14.4v17h4.4c10,0,12.2,3.3,12.2,15.5
		c0,11.5-1.1,22.9-1.1,36.2c0,17,5.6,23.6,16.6,26.2v1.1c-11.1,2.6-16.6,9.2-16.6,26.2c0,13.3,1.1,24.1,1.1,36.2
		c0,12.6-2.6,15.9-12.2,15.9v0.4h-4.4v17.7h14.4c19.5,0,28.5-7.7,28.5-31.8c0-15.9-2.3-24.1-2.3-38.4c0-7.7,4.8-15.9,19.2-16.6
		v-19.2C466.6,245.8,461.8,237.7,461.8,229.9L461.8,229.9z M387.5,252.4c-11.1-4.4-21.4-7-21.4-14.4c0-5.6,4.4-8.9,12.6-8.9
		s15.5,3.3,23.6,9.2l14.8-19.5c-9.2-7-21.8-14.4-38.8-14.4c-25.1,0-42.1,14.4-42.1,34.7c0,18.1,15.9,27.4,29.2,32.5
		c11.5,4.4,22.6,8.2,22.6,15.5c0,5.6-4.4,9.2-14.4,9.2c-9.2,0-18.5-3.7-28.5-11.5l-14.8,21.4c11.1,9.2,28.1,15.5,42.1,15.5
		c29.5,0,45.4-15.5,45.4-35.9S402,257.2,387.5,252.4L387.5,252.4z M135.1,294.2c-2.6,0-5.9-2.3-5.9-9.2V159.7H76.8
		c-20,0-28.8,7.7-28.8,31.8c0,15.9,2.3,24.8,2.3,38.4c0,7.7-4.8,15.9-19.2,16.6v19.2c14.4,0.4,19.2,8.5,19.2,16.2
		c0,13.6-2.3,21.8-2.3,37.7c0,24.1,8.9,31.8,28.5,31.8h14.4v-17h-4.4c-9.2,0-12.2-3.7-12.2-15.9c0-12.2,1.1-22.6,1.1-36.2
		c0-17-5.6-23.6-16.6-26.2v-1.1c11.1-2.6,16.6-9.2,16.6-26.2c0-13.3-1.1-24.1-1.1-36.2c0-12.2,2.6-15.5,12.2-15.5h9.9v106
		c0,22.6,7.7,37.3,30.3,37.3c7,0,12.6-1.1,16.6-2.6l-3.7-24.1C137.3,294.2,136.3,294.2,135.1,294.2L135.1,294.2z M298.1,252.4
		c-11.5-4.4-21.8-7-21.8-14.4c0-5.6,4.4-8.9,12.6-8.9s15.5,3.3,23.6,9.2l14.8-19.5c-9.2-7-21.8-14.4-38.8-14.4
		c-25.1,0-42.1,14.4-42.1,34.7c0,18.1,15.9,27.4,29.2,32.5c11.5,4.4,22.6,8.2,22.6,15.5c0,5.6-4.4,9.2-14.4,9.2
		c-9.2,0-18.5-3.7-28.5-11.5l-14.4,21.4c11.1,9.2,28.1,15.5,42.1,15.5c29.5,0,45.4-15.5,45.4-35.9
		C328.4,265.7,312.5,257.2,298.1,252.4L298.1,252.4z M189.1,204.1c-27,0-52.8,22.6-52.1,58c0,36.6,24.1,58,55.8,58
		c13.3,0,28.1-4.8,39.5-12.6L221.2,288c-8.2,4.8-15.9,7-24.1,7c-14.8,0-26.2-7-29.2-24.1h66.9c0.4-2.6,1.1-7.7,1.1-13.6
		C236.4,227.3,220.1,204.1,189.1,204.1L189.1,204.1z M168,250.6c2.3-14.8,11.1-21.8,21.4-21.8c13.3,0,18.5,9.2,18.5,21.8H168z"/>
</g>
</svg>
